<svg width="30" height="30" viewBox="0 0 30 30" fill="none" xmlns="http://www.w3.org/2000/svg">
<path d="M14.9992 11.3848C14.2839 11.3848 13.5847 11.5967 12.99 11.9938C12.3953 12.3909 11.9318 12.9553 11.6581 13.6156C11.3844 14.2759 11.3128 15.0025 11.4523 15.7035C11.5918 16.4045 11.9363 17.0484 12.442 17.5538C12.9478 18.0592 13.5922 18.4034 14.2937 18.5428C14.9952 18.6822 15.7223 18.6107 16.3831 18.3372C17.0439 18.0636 17.6087 17.6005 18.0061 17.0062C18.4035 16.4119 18.6156 15.7132 18.6156 14.9985C18.6144 14.0404 18.233 13.122 17.555 12.4445C16.8771 11.7671 15.9579 11.3859 14.9992 11.3848Z" fill="#282828"/>
<path d="M19.2556 5.79297H10.7467C9.4323 5.79449 8.17219 6.31691 7.24279 7.24564C6.31339 8.17436 5.79058 9.43355 5.78906 10.747V19.2497C5.79058 20.5631 6.31339 21.8223 7.24279 22.751C8.17219 23.6798 9.4323 24.2022 10.7467 24.2037H19.2556C20.57 24.2022 21.8301 23.6798 22.7595 22.751C23.6889 21.8223 24.2117 20.5631 24.2132 19.2497V10.747C24.2117 9.43355 23.6889 8.17436 22.7595 7.24564C21.8301 6.31691 20.57 5.79449 19.2556 5.79297ZM15.0011 20.5212C13.908 20.5212 12.8395 20.1973 11.9306 19.5904C11.0217 18.9836 10.3133 18.121 9.89499 17.1118C9.47667 16.1027 9.36722 14.9922 9.58048 13.9209C9.79373 12.8496 10.3201 11.8655 11.0931 11.0931C11.866 10.3207 12.8508 9.79472 13.9229 9.58162C14.995 9.36852 16.1063 9.47789 17.1162 9.8959C18.1261 10.3139 18.9893 11.0218 19.5966 11.93C20.2039 12.8382 20.528 13.906 20.528 14.9983C20.5263 16.4626 19.9435 17.8664 18.9074 18.9017C17.8712 19.9371 16.4664 20.5195 15.0011 20.5212ZM21.0743 10.3125C20.8045 10.3125 20.5407 10.2326 20.3163 10.0828C20.0919 9.93304 19.9169 9.72015 19.8136 9.47105C19.7102 9.22196 19.6831 8.94783 19.7356 8.68333C19.7881 8.41882 19.9179 8.17581 20.1086 7.985C20.2993 7.79419 20.5423 7.66414 20.8069 7.61131C21.0715 7.55847 21.3459 7.5852 21.5953 7.68813C21.8447 7.79107 22.058 7.96557 22.2082 8.1896C22.3584 8.41363 22.4388 8.67713 22.4392 8.94679C22.4395 9.1261 22.4044 9.30372 22.336 9.46948C22.2676 9.63524 22.1671 9.78589 22.0403 9.91281C21.9135 10.0397 21.763 10.1404 21.5972 10.2091C21.4315 10.2778 21.2538 10.3132 21.0743 10.3132V10.3125Z" fill="#282828"/>
<path d="M29.9707 7.01917C29.9689 6.47887 29.9194 5.93978 29.8228 5.40818C29.6991 4.75907 29.5251 4.12653 29.214 3.53984C28.89 2.92172 28.4683 2.35988 27.9652 1.87598C27.2052 1.13258 26.2665 0.597294 25.2394 0.321688C24.294 0.0668857 23.327 0.0133771 22.3574 0.0146511C22.3542 0.0103813 22.3522 0.00531502 22.3516 0H7.64263C7.64263 0.00509605 7.64263 0.0101921 7.64263 0.0146511C7.09122 0.0248432 6.53854 0.0203842 5.99031 0.0885438C5.38912 0.152059 4.79726 0.284581 4.22643 0.483488C3.33865 0.810721 2.53737 1.33623 1.88373 2.01995C1.13445 2.78084 0.594888 3.72247 0.31746 4.75334C0.066297 5.69101 0.0114745 6.64716 0.0101995 7.61031L0 22.3678C0.0178492 23.0335 0.0235864 23.7055 0.135781 24.3655C0.254988 25.0662 0.425193 25.7484 0.750303 26.3842C1.1827 27.236 1.79886 27.9814 2.55434 28.5665C3.09363 28.9961 3.70456 29.3271 4.35902 29.5443C5.32288 29.8552 6.31733 29.9743 7.32645 29.9801C7.95627 29.9839 8.58482 29.9998 9.21464 29.9973C13.7879 29.9781 18.3617 30.0304 22.9349 29.9692C23.5391 29.956 24.141 29.8921 24.7345 29.7781C25.8568 29.5806 26.9012 29.0725 27.7491 28.3117C28.755 27.4148 29.4339 26.3179 29.7405 24.9936C29.9414 24.1279 29.9911 23.2495 30 22.3685V22.1927C29.9994 22.1239 29.9732 7.21664 29.9707 7.01917ZM26.1216 19.2497C26.1194 21.0691 25.3952 22.8134 24.1078 24.1C22.8204 25.3866 21.0749 26.1104 19.2542 26.1128H10.7452C8.92434 26.1106 7.17869 25.3868 5.89114 24.1002C4.6036 22.8136 3.87929 21.0692 3.8771 19.2497V10.7469C3.87929 8.92739 4.6036 7.18301 5.89114 5.8964C7.17869 4.6098 8.92434 3.88602 10.7452 3.88383H19.2542C21.075 3.88602 22.8207 4.6098 24.1082 5.8964C25.3958 7.18301 26.1201 8.92739 26.1223 10.7469L26.1216 19.2497Z" fill="#282828"/>
</svg>
