<?xml version="1.0" encoding="UTF-8"?>
<svg id="Layer_1" xmlns="http://www.w3.org/2000/svg" version="1.1" viewBox="0 0 508.1 398.2">
  <!-- Generator: Adobe Illustrator 29.0.1, SVG Export Plug-In . SVG Version: 2.1.0 Build 192)  -->
  <path d="M82.5,303.9c3.1-3.1,7.3-4.9,11.8-4.9h405.5c4.6,0,8.3,3.7,8.3,8.3,0,2.2-.9,4.3-2.4,5.9l-80.1,80.1c-3.1,3.1-7.3,4.9-11.8,4.9H8.3c-4.6,0-8.3-3.8-8.3-8.4,0-2.2.9-4.2,2.4-5.8l80.1-80.1Z"/>
  <path d="M82.5,4.8c3.1-3.1,7.4-4.8,11.8-4.8h405.5c4.6,0,8.3,3.7,8.3,8.3,0,2.2-.9,4.3-2.4,5.9l-80.1,80.1c-3.1,3.1-7.3,4.9-11.8,4.9H8.3c-4.6,0-8.3-3.8-8.3-8.4,0-2.2.9-4.2,2.4-5.8L82.5,4.8Z"/>
  <path d="M425.5,153.4c-3.1-3.1-7.3-4.9-11.8-4.9H8.3c-4.6,0-8.3,3.7-8.3,8.3,0,2.2.9,4.3,2.4,5.9l80.1,80.1c3.1,3.1,7.3,4.9,11.8,4.9h405.5c4.6,0,8.3-3.7,8.3-8.3,0-2.2-.9-4.3-2.4-5.9l-80.1-80.1Z"/>
</svg>