<?xml version="1.0" encoding="UTF-8"?>
<svg id="Layer_1" xmlns="http://www.w3.org/2000/svg" version="1.1" xmlns:xlink="http://www.w3.org/1999/xlink" viewBox="0 0 200 200">
  <!-- Generator: Adobe Illustrator 29.0.1, SVG Export Plug-In . SVG Version: 2.1.0 Build 192)  -->
  <defs>
    <style>
      .st0 {
        fill: #fff;
      }

      .st1 {
        mask: url(#mask);
      }

      .st2 {
        fill: #282828;
      }

      .st3 {
        fill: #052cc0;
      }
    </style>
    <mask id="mask" x="-69" y="-37.4" width="310.3" height="232.4" maskUnits="userSpaceOnUse">
      <g id="mask0_501_19">
        <ellipse class="st3" cx="100" cy="97.5" rx="100" ry="97.5"/>
      </g>
    </mask>
  </defs>
  <ellipse class="st2" cx="100" cy="102.5" rx="100" ry="97.5"/>
  <ellipse cx="100" cy="97.5" rx="100" ry="97.5"/>
  <g class="st1">
    <g>
      <path d="M154.4-35.3l-43.1,76.6-30.5,45.4c15.1-.8,4.4-26.2,47.4-15.8,43,10.3-6.9,57.2-37.2,79.3,12.5-1.6,49.7,59.2,136.3-8,21.3-45.9,32-199.1-72.9-177.5Z"/>
      <path d="M86,137.8l-47.4-45.6-27.1-30.4c-2.5,10.7,18.3,8.4,2,36.2-16.3,27.8-40.5-16.4-50.5-42-1.4,9-53.4,22.6-21.8,96.5,29.3,24.2,139.4,62.7,144.8-14.7Z"/>
    </g>
  </g>
  <path class="st2" d="M86.4,148.4c-1.6,0-3.2-.8-4.1-2.1l-20.1-27.6h-13.1v-10h15.7c1.6,0,3.2.8,4.1,2.1l16.5,22.5,25.1-56.7c.8-1.8,2.6-3,4.7-3h31.4v10h-28.1l-27.3,61.8c-.7,1.7-2.3,2.8-4.1,3-.2,0-.4,0-.5,0Z"/>
  <path class="st0" d="M86.4,138.8c-1.6,0-3.2-.8-4.1-2.1l-20.1-27.6h-13.1v-10h15.7c1.6,0,3.2.8,4.1,2.1l16.5,22.5,25.1-56.7c.8-1.8,2.6-3,4.7-3h31.4v10h-28.1l-27.3,61.8c-.7,1.7-2.3,2.8-4.1,3-.2,0-.4,0-.5,0Z"/>
</svg>